<mxfile host="app.diagrams.net" agent="Mozilla/5.0 (Windows NT 10.0; Win64; x64) AppleWebKit/537.36 (KHTML, like Gecko) Chrome/128.0.0.0 Safari/537.36 Edg/128.0.0.0" version="24.7.10">
  <diagram id="C5RBs43oDa-KdzZeNtuy" name="Page-1">
    <mxGraphModel dx="464" dy="783" grid="1" gridSize="10" guides="1" tooltips="1" connect="1" arrows="1" fold="1" page="1" pageScale="1" pageWidth="827" pageHeight="1169" math="0" shadow="0">
      <root>
        <mxCell id="WIyWlLk6GJQsqaUBKTNV-0" />
        <mxCell id="WIyWlLk6GJQsqaUBKTNV-1" parent="WIyWlLk6GJQsqaUBKTNV-0" />
        <mxCell id="SOfp6XbVKRUj9OVWsziA-24" style="edgeStyle=none;shape=connector;rounded=0;orthogonalLoop=1;jettySize=auto;html=1;entryX=0.5;entryY=1;entryDx=0;entryDy=0;strokeColor=default;align=center;verticalAlign=middle;fontFamily=Helvetica;fontSize=11;fontColor=default;labelBackgroundColor=default;endArrow=none;endFill=0;exitX=0.5;exitY=0;exitDx=0;exitDy=0;" edge="1" parent="WIyWlLk6GJQsqaUBKTNV-1" source="SOfp6XbVKRUj9OVWsziA-16">
          <mxGeometry relative="1" as="geometry">
            <mxPoint x="47.296883081295164" y="676.6796846138232" as="sourcePoint" />
            <mxPoint x="150" y="640" as="targetPoint" />
          </mxGeometry>
        </mxCell>
        <mxCell id="SOfp6XbVKRUj9OVWsziA-16" value="ФИО" style="ellipse;whiteSpace=wrap;html=1;align=center;fontFamily=Helvetica;fontSize=11;fontColor=default;labelBackgroundColor=default;" vertex="1" parent="WIyWlLk6GJQsqaUBKTNV-1">
          <mxGeometry x="10" y="650" width="100" height="40" as="geometry" />
        </mxCell>
        <mxCell id="SOfp6XbVKRUj9OVWsziA-23" style="edgeStyle=none;shape=connector;rounded=0;orthogonalLoop=1;jettySize=auto;html=1;entryX=0;entryY=0.5;entryDx=0;entryDy=0;strokeColor=default;align=center;verticalAlign=middle;fontFamily=Helvetica;fontSize=11;fontColor=default;labelBackgroundColor=default;endArrow=none;endFill=0;" edge="1" parent="WIyWlLk6GJQsqaUBKTNV-1" source="SOfp6XbVKRUj9OVWsziA-17" target="SOfp6XbVKRUj9OVWsziA-21">
          <mxGeometry relative="1" as="geometry" />
        </mxCell>
        <mxCell id="SOfp6XbVKRUj9OVWsziA-17" value="&lt;span style=&quot;border-bottom: 1px dotted&quot;&gt;№паспорта&lt;/span&gt;" style="ellipse;whiteSpace=wrap;html=1;align=center;fontFamily=Helvetica;fontSize=11;fontColor=default;labelBackgroundColor=default;" vertex="1" parent="WIyWlLk6GJQsqaUBKTNV-1">
          <mxGeometry x="10" y="565" width="100" height="40" as="geometry" />
        </mxCell>
        <mxCell id="SOfp6XbVKRUj9OVWsziA-26" style="edgeStyle=none;shape=connector;rounded=0;orthogonalLoop=1;jettySize=auto;html=1;entryX=0.5;entryY=0;entryDx=0;entryDy=0;strokeColor=default;align=center;verticalAlign=middle;fontFamily=Helvetica;fontSize=11;fontColor=default;labelBackgroundColor=default;endArrow=none;endFill=0;" edge="1" parent="WIyWlLk6GJQsqaUBKTNV-1" source="SOfp6XbVKRUj9OVWsziA-18" target="SOfp6XbVKRUj9OVWsziA-25">
          <mxGeometry relative="1" as="geometry" />
        </mxCell>
        <mxCell id="SOfp6XbVKRUj9OVWsziA-18" value="Обучается" style="shape=rhombus;perimeter=rhombusPerimeter;whiteSpace=wrap;html=1;align=center;fontFamily=Helvetica;fontSize=11;fontColor=default;labelBackgroundColor=default;" vertex="1" parent="WIyWlLk6GJQsqaUBKTNV-1">
          <mxGeometry x="140" y="710" width="120" height="60" as="geometry" />
        </mxCell>
        <mxCell id="SOfp6XbVKRUj9OVWsziA-54" style="edgeStyle=none;shape=connector;rounded=0;orthogonalLoop=1;jettySize=auto;html=1;entryX=0;entryY=0.5;entryDx=0;entryDy=0;strokeColor=default;align=center;verticalAlign=middle;fontFamily=Helvetica;fontSize=11;fontColor=default;labelBackgroundColor=default;endArrow=none;endFill=0;" edge="1" parent="WIyWlLk6GJQsqaUBKTNV-1" source="SOfp6XbVKRUj9OVWsziA-19" target="SOfp6XbVKRUj9OVWsziA-29">
          <mxGeometry relative="1" as="geometry" />
        </mxCell>
        <mxCell id="SOfp6XbVKRUj9OVWsziA-55" style="edgeStyle=none;shape=connector;rounded=0;orthogonalLoop=1;jettySize=auto;html=1;entryX=0;entryY=0.5;entryDx=0;entryDy=0;strokeColor=default;align=center;verticalAlign=middle;fontFamily=Helvetica;fontSize=11;fontColor=default;labelBackgroundColor=default;endArrow=none;endFill=0;" edge="1" parent="WIyWlLk6GJQsqaUBKTNV-1" source="SOfp6XbVKRUj9OVWsziA-19" target="SOfp6XbVKRUj9OVWsziA-28">
          <mxGeometry relative="1" as="geometry" />
        </mxCell>
        <mxCell id="SOfp6XbVKRUj9OVWsziA-57" style="edgeStyle=none;shape=connector;rounded=0;orthogonalLoop=1;jettySize=auto;html=1;strokeColor=default;align=center;verticalAlign=middle;fontFamily=Helvetica;fontSize=11;fontColor=default;labelBackgroundColor=default;endArrow=none;endFill=0;" edge="1" parent="WIyWlLk6GJQsqaUBKTNV-1" source="SOfp6XbVKRUj9OVWsziA-19" target="SOfp6XbVKRUj9OVWsziA-56">
          <mxGeometry relative="1" as="geometry" />
        </mxCell>
        <mxCell id="SOfp6XbVKRUj9OVWsziA-19" value="преподаватель&amp;nbsp;" style="rounded=1;arcSize=28;whiteSpace=wrap;html=1;align=center;fontFamily=Helvetica;fontSize=11;fontColor=default;labelBackgroundColor=default;" vertex="1" parent="WIyWlLk6GJQsqaUBKTNV-1">
          <mxGeometry x="500" y="620" width="100" height="40" as="geometry" />
        </mxCell>
        <mxCell id="SOfp6XbVKRUj9OVWsziA-27" style="edgeStyle=none;shape=connector;rounded=0;orthogonalLoop=1;jettySize=auto;html=1;entryX=0.5;entryY=0;entryDx=0;entryDy=0;strokeColor=default;align=center;verticalAlign=middle;fontFamily=Helvetica;fontSize=11;fontColor=default;labelBackgroundColor=default;endArrow=none;endFill=0;" edge="1" parent="WIyWlLk6GJQsqaUBKTNV-1" source="SOfp6XbVKRUj9OVWsziA-21" target="SOfp6XbVKRUj9OVWsziA-18">
          <mxGeometry relative="1" as="geometry" />
        </mxCell>
        <mxCell id="SOfp6XbVKRUj9OVWsziA-45" style="edgeStyle=none;shape=connector;rounded=0;orthogonalLoop=1;jettySize=auto;html=1;entryX=0.5;entryY=1;entryDx=0;entryDy=0;strokeColor=default;align=center;verticalAlign=middle;fontFamily=Helvetica;fontSize=11;fontColor=default;labelBackgroundColor=default;endArrow=none;endFill=0;" edge="1" parent="WIyWlLk6GJQsqaUBKTNV-1" source="SOfp6XbVKRUj9OVWsziA-21" target="SOfp6XbVKRUj9OVWsziA-44">
          <mxGeometry relative="1" as="geometry" />
        </mxCell>
        <mxCell id="SOfp6XbVKRUj9OVWsziA-46" value="1" style="edgeLabel;html=1;align=center;verticalAlign=middle;resizable=0;points=[];fontFamily=Helvetica;fontSize=11;fontColor=default;labelBackgroundColor=default;" vertex="1" connectable="0" parent="SOfp6XbVKRUj9OVWsziA-45">
          <mxGeometry x="0.6261" relative="1" as="geometry">
            <mxPoint as="offset" />
          </mxGeometry>
        </mxCell>
        <mxCell id="SOfp6XbVKRUj9OVWsziA-47" value="*" style="edgeLabel;html=1;align=center;verticalAlign=middle;resizable=0;points=[];fontFamily=Helvetica;fontSize=11;fontColor=default;labelBackgroundColor=default;" vertex="1" connectable="0" parent="SOfp6XbVKRUj9OVWsziA-45">
          <mxGeometry x="-0.7565" y="3" relative="1" as="geometry">
            <mxPoint as="offset" />
          </mxGeometry>
        </mxCell>
        <mxCell id="SOfp6XbVKRUj9OVWsziA-21" value="Студент" style="rounded=1;arcSize=50;whiteSpace=wrap;html=1;align=center;fontFamily=Helvetica;fontSize=11;fontColor=default;labelBackgroundColor=default;" vertex="1" parent="WIyWlLk6GJQsqaUBKTNV-1">
          <mxGeometry x="150" y="620" width="100" height="40" as="geometry" />
        </mxCell>
        <mxCell id="SOfp6XbVKRUj9OVWsziA-25" value="группа" style="whiteSpace=wrap;html=1;align=center;fontFamily=Helvetica;fontSize=11;fontColor=default;labelBackgroundColor=default;" vertex="1" parent="WIyWlLk6GJQsqaUBKTNV-1">
          <mxGeometry x="150" y="820" width="100" height="40" as="geometry" />
        </mxCell>
        <mxCell id="SOfp6XbVKRUj9OVWsziA-28" value="ФИО" style="ellipse;whiteSpace=wrap;html=1;align=center;fontFamily=Helvetica;fontSize=11;fontColor=default;labelBackgroundColor=default;" vertex="1" parent="WIyWlLk6GJQsqaUBKTNV-1">
          <mxGeometry x="640" y="670" width="100" height="40" as="geometry" />
        </mxCell>
        <mxCell id="SOfp6XbVKRUj9OVWsziA-29" value="&lt;span style=&quot;border-bottom: 1px dotted&quot;&gt;№паспорта&lt;/span&gt;" style="ellipse;whiteSpace=wrap;html=1;align=center;fontFamily=Helvetica;fontSize=11;fontColor=default;labelBackgroundColor=default;" vertex="1" parent="WIyWlLk6GJQsqaUBKTNV-1">
          <mxGeometry x="640" y="565" width="100" height="40" as="geometry" />
        </mxCell>
        <mxCell id="SOfp6XbVKRUj9OVWsziA-33" value="" style="edgeStyle=none;shape=connector;rounded=0;orthogonalLoop=1;jettySize=auto;html=1;strokeColor=default;align=center;verticalAlign=middle;fontFamily=Helvetica;fontSize=11;fontColor=default;labelBackgroundColor=default;endArrow=none;endFill=0;" edge="1" parent="WIyWlLk6GJQsqaUBKTNV-1" source="SOfp6XbVKRUj9OVWsziA-31" target="SOfp6XbVKRUj9OVWsziA-32">
          <mxGeometry relative="1" as="geometry" />
        </mxCell>
        <mxCell id="SOfp6XbVKRUj9OVWsziA-38" value="*" style="edgeLabel;html=1;align=center;verticalAlign=middle;resizable=0;points=[];fontFamily=Helvetica;fontSize=11;fontColor=default;labelBackgroundColor=default;" vertex="1" connectable="0" parent="SOfp6XbVKRUj9OVWsziA-33">
          <mxGeometry x="0.3867" relative="1" as="geometry">
            <mxPoint as="offset" />
          </mxGeometry>
        </mxCell>
        <mxCell id="SOfp6XbVKRUj9OVWsziA-34" value="" style="edgeStyle=none;shape=connector;rounded=0;orthogonalLoop=1;jettySize=auto;html=1;strokeColor=default;align=center;verticalAlign=middle;fontFamily=Helvetica;fontSize=11;fontColor=default;labelBackgroundColor=default;endArrow=none;endFill=0;" edge="1" parent="WIyWlLk6GJQsqaUBKTNV-1" source="SOfp6XbVKRUj9OVWsziA-31" target="SOfp6XbVKRUj9OVWsziA-21">
          <mxGeometry relative="1" as="geometry" />
        </mxCell>
        <mxCell id="SOfp6XbVKRUj9OVWsziA-36" value="*" style="edgeLabel;html=1;align=center;verticalAlign=middle;resizable=0;points=[];fontFamily=Helvetica;fontSize=11;fontColor=default;labelBackgroundColor=default;" vertex="1" connectable="0" parent="SOfp6XbVKRUj9OVWsziA-34">
          <mxGeometry x="0.3705" y="-1" relative="1" as="geometry">
            <mxPoint x="-13" y="3" as="offset" />
          </mxGeometry>
        </mxCell>
        <mxCell id="SOfp6XbVKRUj9OVWsziA-35" value="" style="edgeStyle=none;shape=connector;rounded=0;orthogonalLoop=1;jettySize=auto;html=1;strokeColor=default;align=center;verticalAlign=middle;fontFamily=Helvetica;fontSize=11;fontColor=default;labelBackgroundColor=default;endArrow=none;endFill=0;" edge="1" parent="WIyWlLk6GJQsqaUBKTNV-1" source="SOfp6XbVKRUj9OVWsziA-31" target="SOfp6XbVKRUj9OVWsziA-19">
          <mxGeometry relative="1" as="geometry" />
        </mxCell>
        <mxCell id="SOfp6XbVKRUj9OVWsziA-37" value="*" style="edgeLabel;html=1;align=center;verticalAlign=middle;resizable=0;points=[];fontFamily=Helvetica;fontSize=11;fontColor=default;labelBackgroundColor=default;" vertex="1" connectable="0" parent="SOfp6XbVKRUj9OVWsziA-35">
          <mxGeometry x="0.4613" y="2" relative="1" as="geometry">
            <mxPoint as="offset" />
          </mxGeometry>
        </mxCell>
        <mxCell id="SOfp6XbVKRUj9OVWsziA-31" value="Relationship" style="shape=rhombus;perimeter=rhombusPerimeter;whiteSpace=wrap;html=1;align=center;fontFamily=Helvetica;fontSize=11;fontColor=default;labelBackgroundColor=default;" vertex="1" parent="WIyWlLk6GJQsqaUBKTNV-1">
          <mxGeometry x="320" y="605" width="120" height="60" as="geometry" />
        </mxCell>
        <mxCell id="SOfp6XbVKRUj9OVWsziA-50" style="edgeStyle=none;shape=connector;rounded=0;orthogonalLoop=1;jettySize=auto;html=1;entryX=0;entryY=0.5;entryDx=0;entryDy=0;strokeColor=default;align=center;verticalAlign=middle;fontFamily=Helvetica;fontSize=11;fontColor=default;labelBackgroundColor=default;endArrow=none;endFill=0;exitX=1;exitY=0.5;exitDx=0;exitDy=0;" edge="1" parent="WIyWlLk6GJQsqaUBKTNV-1" source="SOfp6XbVKRUj9OVWsziA-32" target="SOfp6XbVKRUj9OVWsziA-48">
          <mxGeometry relative="1" as="geometry">
            <mxPoint x="390" y="740.0023529411766" as="sourcePoint" />
            <mxPoint x="510" y="754.12" as="targetPoint" />
          </mxGeometry>
        </mxCell>
        <mxCell id="SOfp6XbVKRUj9OVWsziA-32" value="Дисциплина" style="whiteSpace=wrap;html=1;align=center;fontFamily=Helvetica;fontSize=11;fontColor=default;labelBackgroundColor=default;" vertex="1" parent="WIyWlLk6GJQsqaUBKTNV-1">
          <mxGeometry x="330" y="740" width="100" height="40" as="geometry" />
        </mxCell>
        <mxCell id="SOfp6XbVKRUj9OVWsziA-40" style="edgeStyle=none;shape=connector;rounded=0;orthogonalLoop=1;jettySize=auto;html=1;entryX=0.5;entryY=1;entryDx=0;entryDy=0;strokeColor=default;align=center;verticalAlign=middle;fontFamily=Helvetica;fontSize=11;fontColor=default;labelBackgroundColor=default;endArrow=none;endFill=0;" edge="1" parent="WIyWlLk6GJQsqaUBKTNV-1" source="SOfp6XbVKRUj9OVWsziA-28" target="SOfp6XbVKRUj9OVWsziA-28">
          <mxGeometry relative="1" as="geometry" />
        </mxCell>
        <mxCell id="SOfp6XbVKRUj9OVWsziA-44" value="Директор" style="whiteSpace=wrap;html=1;align=center;fontFamily=Helvetica;fontSize=11;fontColor=default;labelBackgroundColor=default;" vertex="1" parent="WIyWlLk6GJQsqaUBKTNV-1">
          <mxGeometry x="150" y="350" width="100" height="40" as="geometry" />
        </mxCell>
        <mxCell id="SOfp6XbVKRUj9OVWsziA-49" value="" style="edgeStyle=none;shape=connector;rounded=0;orthogonalLoop=1;jettySize=auto;html=1;strokeColor=default;align=center;verticalAlign=middle;fontFamily=Helvetica;fontSize=11;fontColor=default;labelBackgroundColor=default;endArrow=none;endFill=0;" edge="1" parent="WIyWlLk6GJQsqaUBKTNV-1" source="SOfp6XbVKRUj9OVWsziA-48" target="SOfp6XbVKRUj9OVWsziA-19">
          <mxGeometry relative="1" as="geometry" />
        </mxCell>
        <mxCell id="SOfp6XbVKRUj9OVWsziA-48" value="Нагрузка" style="shape=rhombus;perimeter=rhombusPerimeter;whiteSpace=wrap;html=1;align=center;fontFamily=Helvetica;fontSize=11;fontColor=default;labelBackgroundColor=default;" vertex="1" parent="WIyWlLk6GJQsqaUBKTNV-1">
          <mxGeometry x="490" y="720" width="120" height="60" as="geometry" />
        </mxCell>
        <mxCell id="SOfp6XbVKRUj9OVWsziA-51" style="edgeStyle=orthogonalEdgeStyle;shape=connector;rounded=0;orthogonalLoop=1;jettySize=auto;html=1;strokeColor=default;align=center;verticalAlign=middle;fontFamily=Helvetica;fontSize=11;fontColor=default;labelBackgroundColor=default;endArrow=none;endFill=0;entryX=0.5;entryY=0;entryDx=0;entryDy=0;" edge="1" parent="WIyWlLk6GJQsqaUBKTNV-1" source="SOfp6XbVKRUj9OVWsziA-44" target="SOfp6XbVKRUj9OVWsziA-19">
          <mxGeometry relative="1" as="geometry">
            <mxPoint x="550" y="610" as="targetPoint" />
          </mxGeometry>
        </mxCell>
        <mxCell id="SOfp6XbVKRUj9OVWsziA-52" value="*" style="edgeLabel;html=1;align=center;verticalAlign=middle;resizable=0;points=[];fontFamily=Helvetica;fontSize=11;fontColor=default;labelBackgroundColor=default;" vertex="1" connectable="0" parent="SOfp6XbVKRUj9OVWsziA-51">
          <mxGeometry x="0.8945" y="1" relative="1" as="geometry">
            <mxPoint as="offset" />
          </mxGeometry>
        </mxCell>
        <mxCell id="SOfp6XbVKRUj9OVWsziA-53" value="1" style="edgeLabel;html=1;align=center;verticalAlign=middle;resizable=0;points=[];fontFamily=Helvetica;fontSize=11;fontColor=default;labelBackgroundColor=default;" vertex="1" connectable="0" parent="SOfp6XbVKRUj9OVWsziA-51">
          <mxGeometry x="-0.8909" y="1" relative="1" as="geometry">
            <mxPoint as="offset" />
          </mxGeometry>
        </mxCell>
        <mxCell id="SOfp6XbVKRUj9OVWsziA-56" value="должности" style="whiteSpace=wrap;html=1;align=center;fontFamily=Helvetica;fontSize=11;fontColor=default;labelBackgroundColor=default;" vertex="1" parent="WIyWlLk6GJQsqaUBKTNV-1">
          <mxGeometry x="720" y="770" width="100" height="40" as="geometry" />
        </mxCell>
      </root>
    </mxGraphModel>
  </diagram>
</mxfile>
